M48
; DRILL file {KiCad 9.0.3} date 2025-09-27T00:12:25+0200
; FORMAT={-:-/ absolute / metric / decimal}
; #@! TF.CreationDate,2025-09-27T00:12:25+02:00
; #@! TF.GenerationSoftware,Kicad,Pcbnew,9.0.3
; #@! TF.FileFunction,Plated,1,2,PTH
FMAT,2
METRIC
; #@! TA.AperFunction,Plated,PTH,ViaDrill
T1C0.300
; #@! TA.AperFunction,Plated,PTH,ComponentDrill
T2C0.800
; #@! TA.AperFunction,Plated,PTH,ComponentDrill
T3C1.000
; #@! TA.AperFunction,Plated,PTH,ComponentDrill
T4C1.100
%
G90
G05
T1
X42.6Y-104.7
X42.6Y-108.9
X42.6Y-113.1
X42.6Y-117.3
X42.6Y-121.5
X42.6Y-125.7
X42.6Y-129.9
X42.6Y-136.7
X43.8Y-143.4
X45.6Y-147.4
X47.0Y-100.2
X47.9Y-150.7
X51.8Y-97.8
X51.955Y-154.422
X56.1Y-156.7
X56.4Y-95.2
X61.1Y-92.3
X61.9Y-158.2
X65.9Y-89.1
X66.7Y-158.4
X67.6Y-106.3
X70.1Y-111.3
X70.4Y-85.8
X70.8Y-119.2
X72.6Y-116.4
X73.0Y-126.2
X73.2Y-158.4
X75.5Y-101.2
X76.0Y-81.3
X76.1Y-116.4
X79.7Y-158.4
X81.1Y-97.0
X81.2Y-76.6
X82.6Y-110.0
X85.911Y-71.811
X86.2Y-158.4
X87.6Y-104.8
X89.4Y-90.1
X90.7Y-66.6
X92.6Y-104.6
X92.7Y-158.4
X94.8Y-61.5
X95.1Y-84.8
X96.4Y-99.4
X97.7Y-57.6
X99.2Y-158.4
X100.1Y-106.6
X100.2Y-109.6
X100.3Y-138.4
X100.3Y-141.0
X100.5Y-79.3
X101.8Y-51.6
X102.8Y-95.8
X103.8Y-141.0
X104.6Y-47.0
X105.7Y-158.4
X106.5Y-84.1
X106.7Y-92.3
X107.2Y-71.5
X107.7Y-42.0
X111.8Y-37.8
X112.2Y-158.4
X114.1Y-94.1
X114.9Y-79.1
X115.2Y-100.2
X116.3Y-103.7
X116.7Y-58.1
X116.9Y-34.9
X117.6Y-97.2
X118.7Y-158.4
X120.1Y-88.4
X120.1Y-96.9
X120.1Y-100.0
X120.666Y-97.466
X120.7Y-33.7
X121.1Y-86.0
X121.7Y-72.8
X121.9Y-60.9
X124.756Y-33.2
X124.9Y-69.2
X125.2Y-158.4
X126.7Y-88.5
X127.534Y-33.2
X127.8Y-138.6
X128.3Y-85.8
X128.3Y-108.4
X128.7Y-141.1
X129.6Y-78.9
X130.2Y-117.2
X130.312Y-33.2
X131.7Y-158.4
X131.9Y-138.0
X133.09Y-33.2
X133.1Y-131.3
X133.3Y-74.3
X134.1Y-121.0
X134.2Y-114.9
X134.9Y-141.1
X135.868Y-33.2
X136.3Y-138.6
X137.2Y-107.9
X138.2Y-158.4
X138.5Y-110.9
X138.646Y-33.2
X138.7Y-79.7
X140.0Y-137.9
X141.0Y-108.1
X141.424Y-33.2
X144.202Y-33.2
X144.7Y-158.4
X146.98Y-33.2
X148.0Y-134.9
X149.758Y-33.2
X150.0Y-105.1
X150.7Y-137.7
X150.7Y-140.4
X150.7Y-143.8
X151.2Y-131.8
X151.2Y-158.4
X151.3Y-111.8
X152.536Y-33.2
X152.6Y-139.009
X153.7Y-131.8
X153.8Y-111.8
X154.8Y-93.5
X154.8Y-99.5
X155.314Y-33.2
X155.7Y-105.2
X156.8Y-99.1
X156.9Y-92.9
X157.3Y-130.8
X157.4Y-125.0
X157.7Y-158.4
X158.092Y-33.2
X160.7Y-84.5
X160.871Y-33.2
X163.649Y-33.2
X164.2Y-158.4
X165.2Y-84.4
X165.4Y-79.8
X166.427Y-33.2
X166.6Y-112.4
X166.6Y-125.7
X168.7Y-84.8
X169.205Y-33.2
X169.9Y-79.8
X170.3Y-86.5
X170.7Y-158.4
X171.983Y-33.2
X172.1Y-81.4
X173.7Y-83.1
X174.761Y-33.2
X176.7Y-89.6
X177.2Y-99.5
X177.539Y-33.2
X178.7Y-158.4
X180.317Y-33.2
X181.2Y-91.6
X181.8Y-79.5
X181.8Y-81.8
X183.095Y-33.2
X185.6Y-158.4
X185.873Y-33.2
X188.651Y-33.2
X189.4Y-92.2
X190.55Y-91.45
X191.1Y-157.7
X191.429Y-33.2
X193.0Y-92.2
X194.207Y-33.2
X195.6Y-156.0
X195.7Y-131.5
X196.985Y-33.2
X198.2Y-131.5
X199.3Y-153.6
X199.763Y-33.2
X202.1Y-151.0
X202.541Y-33.2
X205.319Y-33.2
X205.4Y-146.1
X206.0Y-37.8
X206.9Y-141.9
X207.6Y-80.7
X207.6Y-86.6
X207.6Y-92.8
X207.6Y-97.5
X207.6Y-100.4
X207.6Y-103.9
X207.6Y-106.8
X207.6Y-131.7
X207.6Y-135.7
X207.687Y-112.8
X207.687Y-125.1
X208.097Y-33.2
X208.2Y-74.1
X209.3Y-37.7
X209.3Y-42.5
X209.7Y-69.5
X210.876Y-33.2
X212.3Y-65.0
X212.766Y-42.534
X213.654Y-33.2
X214.3Y-62.3
X214.7Y-42.1
X216.432Y-33.2
X219.21Y-33.2
X219.5Y-57.4
X221.7Y-55.9
X221.988Y-33.2
X223.7Y-54.8
X224.766Y-33.2
X226.3Y-53.7
X227.544Y-33.2
X229.3Y-42.1
X230.1Y-52.6
X230.322Y-33.2
X233.0Y-33.2
X233.0Y-36.1
X233.0Y-49.2
X233.0Y-52.078
T2
X157.2Y-132.69
X157.2Y-140.31
X162.5Y-132.69
X162.5Y-140.31
X167.29Y-89.8
X167.29Y-93.3
X167.29Y-100.2
X167.29Y-96.7
X167.5Y-132.69
X167.5Y-140.31
X172.0Y-132.79
X172.0Y-140.41
X174.91Y-89.8
X174.91Y-93.3
X174.91Y-100.2
X174.91Y-96.7
X194.19Y-36.0
X194.19Y-39.2
X201.81Y-36.0
X201.81Y-39.2
T3
X70.676Y-124.06
X72.875Y-122.79
X94.608Y-107.579
X96.554Y-105.946
X102.076Y-139.791
X102.076Y-142.291
X102.076Y-144.791
X115.319Y-87.186
X116.951Y-85.241
X129.667Y-109.601
X132.177Y-63.53
X132.207Y-109.601
X133.447Y-61.33
X134.747Y-109.601
X137.287Y-109.601
X139.827Y-109.601
X140.125Y-139.741
X140.125Y-142.241
X140.125Y-144.741
X142.367Y-109.601
X144.907Y-109.601
X147.447Y-109.601
X149.987Y-109.601
X152.527Y-109.601
X158.855Y-110.439
X158.855Y-128.219
X161.395Y-110.439
X161.395Y-128.219
X163.935Y-110.439
X163.935Y-128.219
X166.475Y-110.439
X166.475Y-128.219
X169.015Y-110.439
X169.015Y-128.219
X171.555Y-110.439
X171.555Y-128.219
X174.095Y-110.439
X174.095Y-128.219
X176.635Y-110.439
X176.635Y-128.219
X178.146Y-139.765
X178.146Y-142.265
X178.146Y-144.765
X179.175Y-110.439
X179.175Y-128.219
X179.629Y-75.54
X179.629Y-78.08
X179.629Y-80.62
X179.629Y-83.16
X179.629Y-85.7
X179.629Y-88.24
X179.629Y-90.78
X179.629Y-93.32
X179.629Y-95.86
X179.629Y-98.4
X181.715Y-110.439
X181.715Y-128.219
X184.255Y-110.439
X184.255Y-128.219
X186.795Y-110.439
X186.795Y-128.219
X189.335Y-110.439
X189.335Y-128.219
X191.875Y-110.439
X191.875Y-128.219
X194.415Y-110.439
X194.415Y-128.219
X196.955Y-110.439
X196.955Y-128.219
X199.495Y-110.439
X199.495Y-128.219
X202.035Y-110.439
X202.035Y-128.219
X204.575Y-110.439
X204.575Y-128.219
X207.115Y-110.439
X207.115Y-128.219
X231.419Y-40.183
X231.419Y-42.723
X231.419Y-45.263
T4
X62.568Y-111.95
X65.818Y-117.579
X66.465Y-109.7
X69.715Y-115.329
X84.529Y-97.051
X87.976Y-94.159
X88.707Y-102.031
X92.154Y-99.138
X103.558Y-78.593
X106.451Y-75.146
X108.537Y-82.771
X111.43Y-79.324
X119.095Y-57.061
X121.345Y-53.163
X124.725Y-60.311
X126.975Y-56.413
T4
G00X109.226Y-137.491
M15
G01X109.926Y-137.491
M16
G05
G00X109.226Y-147.091
M15
G01X109.926Y-147.091
M16
G05
G00X147.275Y-137.441
M15
G01X147.975Y-137.441
M16
G05
G00X147.275Y-147.041
M15
G01X147.975Y-147.041
M16
G05
G00X185.296Y-137.465
M15
G01X185.996Y-137.465
M16
G05
G00X185.296Y-147.065
M15
G01X185.996Y-147.065
M16
G05
M30
