%TF.GenerationSoftware,KiCad,Pcbnew,9.0.4*%
%TF.CreationDate,2025-09-28T19:10:48-04:00*%
%TF.ProjectId,Stradex1,53747261-6465-4783-912e-6b696361645f,rev?*%
%TF.SameCoordinates,Original*%
%TF.FileFunction,Soldermask,Top*%
%TF.FilePolarity,Negative*%
%FSLAX46Y46*%
G04 Gerber Fmt 4.6, Leading zero omitted, Abs format (unit mm)*
G04 Created by KiCad (PCBNEW 9.0.4) date 2025-09-28 19:10:48*
%MOMM*%
%LPD*%
G01*
G04 APERTURE LIST*
G04 Aperture macros list*
%AMRoundRect*
0 Rectangle with rounded corners*
0 $1 Rounding radius*
0 $2 $3 $4 $5 $6 $7 $8 $9 X,Y pos of 4 corners*
0 Add a 4 corners polygon primitive as box body*
4,1,4,$2,$3,$4,$5,$6,$7,$8,$9,$2,$3,0*
0 Add four circle primitives for the rounded corners*
1,1,$1+$1,$2,$3*
1,1,$1+$1,$4,$5*
1,1,$1+$1,$6,$7*
1,1,$1+$1,$8,$9*
0 Add four rect primitives between the rounded corners*
20,1,$1+$1,$2,$3,$4,$5,0*
20,1,$1+$1,$4,$5,$6,$7,0*
20,1,$1+$1,$6,$7,$8,$9,0*
20,1,$1+$1,$8,$9,$2,$3,0*%
%AMRotRect*
0 Rectangle, with rotation*
0 The origin of the aperture is its center*
0 $1 length*
0 $2 width*
0 $3 Rotation angle, in degrees counterclockwise*
0 Add horizontal line*
21,1,$1,$2,0,0,$3*%
%AMFreePoly0*
4,1,37,0.800000,0.796148,0.878414,0.796148,1.032228,0.765552,1.177117,0.705537,1.307515,0.618408,1.418408,0.507515,1.505537,0.377117,1.565552,0.232228,1.596148,0.078414,1.596148,-0.078414,1.565552,-0.232228,1.505537,-0.377117,1.418408,-0.507515,1.307515,-0.618408,1.177117,-0.705537,1.032228,-0.765552,0.878414,-0.796148,0.800000,-0.796148,0.800000,-0.800000,-1.400000,-0.800000,
-1.403843,-0.796157,-1.439018,-0.796157,-1.511114,-0.766294,-1.566294,-0.711114,-1.596157,-0.639018,-1.596157,-0.603843,-1.600000,-0.600000,-1.600000,0.600000,-1.596157,0.603843,-1.596157,0.639018,-1.566294,0.711114,-1.511114,0.766294,-1.439018,0.796157,-1.403843,0.796157,-1.400000,0.800000,0.800000,0.800000,0.800000,0.796148,0.800000,0.796148,$1*%
%AMFreePoly1*
4,1,37,1.403843,0.796157,1.439018,0.796157,1.511114,0.766294,1.566294,0.711114,1.596157,0.639018,1.596157,0.603843,1.600000,0.600000,1.600000,-0.600000,1.596157,-0.603843,1.596157,-0.639018,1.566294,-0.711114,1.511114,-0.766294,1.439018,-0.796157,1.403843,-0.796157,1.400000,-0.800000,-0.800000,-0.800000,-0.800000,-0.796148,-0.878414,-0.796148,-1.032228,-0.765552,-1.177117,-0.705537,
-1.307515,-0.618408,-1.418408,-0.507515,-1.505537,-0.377117,-1.565552,-0.232228,-1.596148,-0.078414,-1.596148,0.078414,-1.565552,0.232228,-1.505537,0.377117,-1.418408,0.507515,-1.307515,0.618408,-1.177117,0.705537,-1.032228,0.765552,-0.878414,0.796148,-0.800000,0.796148,-0.800000,0.800000,1.400000,0.800000,1.403843,0.796157,1.403843,0.796157,$1*%
%AMFreePoly2*
4,1,37,0.603843,0.796157,0.639018,0.796157,0.711114,0.766294,0.766294,0.711114,0.796157,0.639018,0.796157,0.603843,0.800000,0.600000,0.800000,-0.600000,0.796157,-0.603843,0.796157,-0.639018,0.766294,-0.711114,0.711114,-0.766294,0.639018,-0.796157,0.603843,-0.796157,0.600000,-0.800000,0.000000,-0.800000,0.000000,-0.796148,-0.078414,-0.796148,-0.232228,-0.765552,-0.377117,-0.705537,
-0.507515,-0.618408,-0.618408,-0.507515,-0.705537,-0.377117,-0.765552,-0.232228,-0.796148,-0.078414,-0.796148,0.078414,-0.765552,0.232228,-0.705537,0.377117,-0.618408,0.507515,-0.507515,0.618408,-0.377117,0.705537,-0.232228,0.765552,-0.078414,0.796148,0.000000,0.796148,0.000000,0.800000,0.600000,0.800000,0.603843,0.796157,0.603843,0.796157,$1*%
%AMFreePoly3*
4,1,37,0.000000,0.796148,0.078414,0.796148,0.232228,0.765552,0.377117,0.705537,0.507515,0.618408,0.618408,0.507515,0.705537,0.377117,0.765552,0.232228,0.796148,0.078414,0.796148,-0.078414,0.765552,-0.232228,0.705537,-0.377117,0.618408,-0.507515,0.507515,-0.618408,0.377117,-0.705537,0.232228,-0.765552,0.078414,-0.796148,0.000000,-0.796148,0.000000,-0.800000,-0.600000,-0.800000,
-0.603843,-0.796157,-0.639018,-0.796157,-0.711114,-0.766294,-0.766294,-0.711114,-0.796157,-0.639018,-0.796157,-0.603843,-0.800000,-0.600000,-0.800000,0.600000,-0.796157,0.603843,-0.796157,0.639018,-0.766294,0.711114,-0.711114,0.766294,-0.639018,0.796157,-0.603843,0.796157,-0.600000,0.800000,0.000000,0.800000,0.000000,0.796148,0.000000,0.796148,$1*%
G04 Aperture macros list end*
%ADD10C,2.000000*%
%ADD11R,1.700000X1.700000*%
%ADD12C,1.700000*%
%ADD13RotRect,1.700000X1.700000X330.000000*%
%ADD14C,1.600000*%
%ADD15O,1.600000X1.600000*%
%ADD16RotRect,1.700000X1.700000X300.000000*%
%ADD17RotRect,1.700000X1.700000X310.000000*%
%ADD18O,3.240000X2.720000*%
%ADD19R,1.800000X1.800000*%
%ADD20C,1.800000*%
%ADD21RotRect,1.700000X1.700000X320.000000*%
%ADD22C,2.200000*%
%ADD23C,1.850000*%
%ADD24FreePoly0,270.000000*%
%ADD25RoundRect,0.200000X-0.600000X0.600000X-0.600000X-0.600000X0.600000X-0.600000X0.600000X0.600000X0*%
%ADD26RoundRect,0.800000X-0.000010X0.800000X-0.000010X-0.800000X0.000010X-0.800000X0.000010X0.800000X0*%
%ADD27FreePoly1,270.000000*%
%ADD28FreePoly2,270.000000*%
%ADD29FreePoly3,270.000000*%
G04 APERTURE END LIST*
D10*
%TO.C,SW3*%
X87975740Y-94158883D03*
X92153860Y-99138171D03*
X84528540Y-97051427D03*
X88706660Y-102030717D03*
%TD*%
D11*
%TO.C,RV1*%
X231419400Y-40182800D03*
D12*
X231419400Y-42722800D03*
X231419400Y-45262800D03*
%TD*%
D11*
%TO.C,U1*%
X179628800Y-75539600D03*
D12*
X179628800Y-78079600D03*
X179628800Y-80619600D03*
X179628800Y-83159600D03*
X179628800Y-85699600D03*
X179628800Y-88239600D03*
X179628800Y-90779600D03*
X179628800Y-93319600D03*
X179628800Y-95859600D03*
X179628800Y-98399600D03*
%TD*%
D13*
%TO.C,R1*%
X133412451Y-61337768D03*
D12*
X132142451Y-63537473D03*
%TD*%
D14*
%TO.C,R9*%
X158597600Y-74182777D03*
D15*
X166217600Y-74182777D03*
%TD*%
D16*
%TO.C,R4*%
X72875432Y-122789851D03*
D12*
X70675727Y-124059851D03*
%TD*%
D10*
%TO.C,SW1*%
X121345435Y-53163400D03*
X126974600Y-56413400D03*
X119095435Y-57060513D03*
X124724601Y-60310515D03*
%TD*%
D17*
%TO.C,R3*%
X96553825Y-105946467D03*
D12*
X94608072Y-107579148D03*
%TD*%
D14*
%TO.C,R10*%
X158597600Y-88806096D03*
D15*
X166217600Y-88806096D03*
%TD*%
D18*
%TO.C,RV3*%
X147624800Y-137440600D03*
X147624800Y-147040600D03*
D19*
X140124800Y-139740600D03*
D20*
X140124800Y-142240600D03*
X140124800Y-144740600D03*
%TD*%
D14*
%TO.C,R8*%
X90690000Y-139500000D03*
D15*
X98310000Y-139500000D03*
%TD*%
D14*
%TO.C,R5*%
X158597601Y-81494439D03*
D15*
X166217601Y-81494439D03*
%TD*%
D14*
%TO.C,R7*%
X117551200Y-132130800D03*
D15*
X125171200Y-132130800D03*
%TD*%
D11*
%TO.C,U2*%
X152527000Y-109600600D03*
D12*
X149987000Y-109600600D03*
X147447000Y-109600600D03*
X144907000Y-109600600D03*
X142367000Y-109600600D03*
X139827000Y-109600600D03*
X137287000Y-109600600D03*
X134747000Y-109600600D03*
X132207000Y-109600600D03*
X129667000Y-109600600D03*
%TD*%
D10*
%TO.C,SW4*%
X66465157Y-109700017D03*
X69715158Y-115329182D03*
X62568043Y-111950017D03*
X65818043Y-117579183D03*
%TD*%
D18*
%TO.C,RV2*%
X185645600Y-137465400D03*
X185645600Y-147065400D03*
D19*
X178145600Y-139765400D03*
D20*
X178145600Y-142265400D03*
X178145600Y-144765400D03*
%TD*%
D14*
%TO.C,R6*%
X158597601Y-96117758D03*
D15*
X166217601Y-96117758D03*
%TD*%
D10*
%TO.C,SW2*%
X106450511Y-75146081D03*
X111429800Y-79324200D03*
X103557967Y-78593281D03*
X108537256Y-82771401D03*
%TD*%
D18*
%TO.C,RV4*%
X109575600Y-137490800D03*
X109575600Y-147090800D03*
D19*
X102075600Y-139790800D03*
D20*
X102075600Y-142290800D03*
X102075600Y-144790800D03*
%TD*%
D14*
%TO.C,R11*%
X123139200Y-126619000D03*
D15*
X130759200Y-126619000D03*
%TD*%
D21*
%TO.C,R2*%
X116951436Y-85240714D03*
D12*
X115318755Y-87186467D03*
%TD*%
D22*
%TO.C,A1*%
X206985100Y-116604200D03*
D23*
X203955100Y-116904200D03*
X203955100Y-121754200D03*
D22*
X206985100Y-122054200D03*
D24*
X207115100Y-109639200D03*
D25*
X207115100Y-110439200D03*
D26*
X204575100Y-109639200D03*
D14*
X204575100Y-110439200D03*
D27*
X202035100Y-109639200D03*
D28*
X202035100Y-110439200D03*
D26*
X199495100Y-109639200D03*
D14*
X199495100Y-110439200D03*
D26*
X196955100Y-109639200D03*
D14*
X196955100Y-110439200D03*
D26*
X194415100Y-109639200D03*
D14*
X194415100Y-110439200D03*
D26*
X191875100Y-109639200D03*
D14*
X191875100Y-110439200D03*
D27*
X189335100Y-109639200D03*
D28*
X189335100Y-110439200D03*
D26*
X186795100Y-109639200D03*
D14*
X186795100Y-110439200D03*
D26*
X184255100Y-109639200D03*
D14*
X184255100Y-110439200D03*
D26*
X181715100Y-109639200D03*
D14*
X181715100Y-110439200D03*
D26*
X179175100Y-109639200D03*
D14*
X179175100Y-110439200D03*
D27*
X176635100Y-109639200D03*
D28*
X176635100Y-110439200D03*
D26*
X174095100Y-109639200D03*
D14*
X174095100Y-110439200D03*
D26*
X171555100Y-109639200D03*
D14*
X171555100Y-110439200D03*
D26*
X169015100Y-109639200D03*
D14*
X169015100Y-110439200D03*
D26*
X166475100Y-109639200D03*
D14*
X166475100Y-110439200D03*
D27*
X163935100Y-109639200D03*
D28*
X163935100Y-110439200D03*
D26*
X161395100Y-109639200D03*
D14*
X161395100Y-110439200D03*
D26*
X158855100Y-109639200D03*
D14*
X158855100Y-110439200D03*
X158855100Y-128219200D03*
D26*
X158855100Y-129019200D03*
D14*
X161395100Y-128219200D03*
D26*
X161395100Y-129019200D03*
D29*
X163935100Y-128219200D03*
D24*
X163935100Y-129019200D03*
D14*
X166475100Y-128219200D03*
D26*
X166475100Y-129019200D03*
D14*
X169015100Y-128219200D03*
D26*
X169015100Y-129019200D03*
D14*
X171555100Y-128219200D03*
D26*
X171555100Y-129019200D03*
D14*
X174095100Y-128219200D03*
D26*
X174095100Y-129019200D03*
D29*
X176635100Y-128219200D03*
D24*
X176635100Y-129019200D03*
D14*
X179175100Y-128219200D03*
D26*
X179175100Y-129019200D03*
D14*
X181715100Y-128219200D03*
D26*
X181715100Y-129019200D03*
D14*
X184255100Y-128219200D03*
D26*
X184255100Y-129019200D03*
D14*
X186795100Y-128219200D03*
D26*
X186795100Y-129019200D03*
D29*
X189335100Y-128219200D03*
D24*
X189335100Y-129019200D03*
D14*
X191875100Y-128219200D03*
D26*
X191875100Y-129019200D03*
D14*
X194415100Y-128219200D03*
D26*
X194415100Y-129019200D03*
D14*
X196955100Y-128219200D03*
D26*
X196955100Y-129019200D03*
D14*
X199495100Y-128219200D03*
D26*
X199495100Y-129019200D03*
D29*
X202035100Y-128219200D03*
D24*
X202035100Y-129019200D03*
D14*
X204575100Y-128219200D03*
D26*
X204575100Y-129019200D03*
D14*
X207115100Y-128219200D03*
D26*
X207115100Y-129019200D03*
%TD*%
D14*
%TO.C,R17*%
X219252800Y-49987200D03*
D15*
X226872800Y-49987200D03*
%TD*%
D14*
%TO.C,R12*%
X90689999Y-132999998D03*
D15*
X98309999Y-132999998D03*
%TD*%
M02*
